<?xml version="1.0" standalone="no"?>
<!DOCTYPE svg PUBLIC "-//W3C//DTD SVG 20010904//EN"
 "http://www.w3.org/TR/2001/REC-SVG-20010904/DTD/svg10.dtd">
<svg version="1.0" xmlns="http://www.w3.org/2000/svg"
 width="497.000000pt" height="512.000000pt" viewBox="0 0 497.000000 512.000000"
 preserveAspectRatio="xMidYMid meet">
<metadata>
Created by potrace 1.16, written by Peter Selinger 2001-2019
</metadata>
<g transform="translate(0.000000,512.000000) scale(0.100000,-0.100000)"
fill="#000000" stroke="none">
<path d="M2868 5104 c-107 -19 -257 -68 -363 -119 -430 -206 -656 -567 -682
-1090 -17 -350 78 -804 257 -1219 107 -250 234 -407 420 -516 129 -76 270
-117 445 -130 108 -7 112 -9 190 -55 124 -74 239 -152 267 -182 17 -19 102
-226 259 -627 128 -330 244 -612 257 -627 27 -33 82 -53 126 -46 40 6 516 191
570 220 51 28 79 79 73 132 -3 22 -111 312 -241 644 l-236 603 10 67 c17 107
89 343 113 371 12 14 47 52 78 85 227 243 309 573 223 901 -41 160 -151 426
-258 624 -298 554 -672 883 -1096 965 -94 19 -308 18 -412 -1z m609 -1077
c106 -67 150 -200 102 -307 -70 -156 -245 -204 -380 -105 -83 60 -118 170 -89
276 13 48 84 127 135 151 60 28 175 21 232 -15z m452 -1836 c-24 -122 -18
-141 210 -725 117 -297 208 -543 204 -546 -10 -9 -218 -90 -230 -90 -4 0 -104
247 -221 548 -230 588 -232 594 -333 668 -28 20 -47 40 -42 44 4 4 53 22 108
40 55 18 147 54 205 80 58 26 106 46 108 45 2 -2 -2 -31 -9 -64z"/>
<path d="M1810 4709 c-492 -48 -923 -460 -1184 -1133 -101 -260 -167 -503
-188 -690 -35 -326 94 -630 361 -851 73 -61 78 -67 120 -166 65 -154 102 -258
103 -293 0 -17 -72 -306 -161 -643 -89 -339 -161 -631 -161 -655 0 -54 29
-103 72 -123 57 -26 564 -155 609 -155 52 0 102 28 122 67 8 15 88 307 178
648 103 392 170 630 182 647 25 33 157 146 253 217 64 46 81 53 158 67 47 8
117 24 154 35 92 28 250 112 309 164 l48 43 -45 11 c-224 59 -398 157 -546
308 -142 146 -248 345 -361 678 -239 707 -224 1320 44 1750 46 74 50 86 31 84
-7 -1 -51 -5 -98 -10z m-190 -3040 l109 -22 -62 -67 c-35 -36 -71 -82 -80
-102 -10 -21 -83 -288 -164 -595 -80 -307 -147 -559 -148 -561 -2 -2 -246 59
-253 64 -1 1 64 251 145 555 163 613 167 637 126 765 l-20 61 119 -38 c65 -21
167 -48 228 -60z"/>
</g>
</svg>
